{
  "asset": {
    "generator": "glTF-Transform v4.2.1",
    "version": "2.0"
  },
  "accessors": [
    {
      "type": "VEC3",
      "componentType": 5126,
      "count": 1885,
      "max": [
        13.415499687194824,
        75.06089782714844,
        8.858200073242188
      ],
      "min": [
        -14.489800453186035,
        0.015300000086426735,
        -7.093800067901611
      ],
      "bufferView": 0,
      "byteOffset": 0
    },
    {
      "type": "VEC2",
      "componentType": 5126,
      "count": 1885,
      "bufferView": 0,
      "byteOffset": 12
    },
    {
      "type": "VEC3",
      "componentType": 5126,
      "count": 1885,
      "bufferView": 0,
      "byteOffset": 20
    },
    {
      "type": "SCALAR",
      "componentType": 5123,
      "count": 1818,
      "bufferView": 1,
      "byteOffset": 0
    },
    {
      "type": "SCALAR",
      "componentType": 5123,
      "count": 1344,
      "bufferView": 1,
      "byteOffset": 3636
    },
    {
      "type": "SCALAR",
      "componentType": 5123,
      "count": 1062,
      "bufferView": 1,
      "byteOffset": 6324
    },
    {
      "type": "SCALAR",
      "componentType": 5123,
      "count": 2304,
      "bufferView": 1,
      "byteOffset": 8448
    },
    {
      "type": "SCALAR",
      "componentType": 5123,
      "count": 1476,
      "bufferView": 1,
      "byteOffset": 13056
    },
    {
      "type": "SCALAR",
      "componentType": 5123,
      "count": 1518,
      "bufferView": 1,
      "byteOffset": 16008
    },
    {
      "type": "SCALAR",
      "componentType": 5123,
      "count": 924,
      "bufferView": 1,
      "byteOffset": 19044
    }
  ],
  "bufferViews": [
    {
      "buffer": 0,
      "byteOffset": 0,
      "byteLength": 60320,
      "byteStride": 32,
      "target": 34962
    },
    {
      "buffer": 0,
      "byteOffset": 60320,
      "byteLength": 20892,
      "target": 34963
    }
  ],
  "buffers": [
    {
      "uri": "buffer.bin",
      "byteLength": 81212
    }
  ],
  "materials": [
    {
      "name": "shirtbelt.tga",
      "extras": {
        "bitmap": "E:\\Comrade soviet soldier\\shirtbelt.jpg"
      },
      "doubleSided": true,
      "pbrMetallicRoughness": {
        "roughnessFactor": 0.5,
        "metallicFactor": 0
      }
    },
    {
      "name": "hands.tga",
      "extras": {
        "bitmap": "E:\\Comrade soviet soldier\\hands.jpg"
      },
      "doubleSided": true,
      "pbrMetallicRoughness": {
        "roughnessFactor": 0.5,
        "metallicFactor": 0
      }
    },
    {
      "name": "pants.tga",
      "extras": {
        "bitmap": "E:\\Comrade soviet soldier\\pants.jpg"
      },
      "doubleSided": true,
      "pbrMetallicRoughness": {
        "roughnessFactor": 0.5,
        "metallicFactor": 0
      }
    },
    {
      "name": "greatcoat.tga",
      "extras": {
        "bitmap": "E:\\Comrade soviet soldier\\greatcoat.jpg"
      },
      "doubleSided": true,
      "pbrMetallicRoughness": {
        "roughnessFactor": 0.5,
        "metallicFactor": 0
      }
    },
    {
      "name": "bootsleeves.tga",
      "extras": {
        "bitmap": "E:\\Comrade soviet soldier\\bootsleeves.jpg"
      },
      "doubleSided": true,
      "pbrMetallicRoughness": {
        "roughnessFactor": 0.5,
        "metallicFactor": 0
      }
    },
    {
      "name": "head.tga",
      "extras": {
        "bitmap": "E:\\Comrade soviet soldier\\head.jpg"
      },
      "doubleSided": true,
      "pbrMetallicRoughness": {
        "roughnessFactor": 0.5,
        "metallicFactor": 0
      }
    },
    {
      "name": "ushanka.tga",
      "extras": {
        "bitmap": "E:\\Comrade soviet soldier\\ushanka.jpg"
      },
      "doubleSided": true,
      "pbrMetallicRoughness": {
        "roughnessFactor": 0.5,
        "metallicFactor": 0
      }
    }
  ],
  "meshes": [
    {
      "primitives": [
        {
          "attributes": {
            "POSITION": 0,
            "TEXCOORD_0": 1,
            "NORMAL": 2
          },
          "mode": 4,
          "material": 0,
          "indices": 3
        },
        {
          "attributes": {
            "POSITION": 0,
            "TEXCOORD_0": 1,
            "NORMAL": 2
          },
          "mode": 4,
          "material": 1,
          "indices": 4
        },
        {
          "attributes": {
            "POSITION": 0,
            "TEXCOORD_0": 1,
            "NORMAL": 2
          },
          "mode": 4,
          "material": 2,
          "indices": 5
        },
        {
          "attributes": {
            "POSITION": 0,
            "TEXCOORD_0": 1,
            "NORMAL": 2
          },
          "mode": 4,
          "material": 3,
          "indices": 6
        },
        {
          "attributes": {
            "POSITION": 0,
            "TEXCOORD_0": 1,
            "NORMAL": 2
          },
          "mode": 4,
          "material": 4,
          "indices": 7
        },
        {
          "attributes": {
            "POSITION": 0,
            "TEXCOORD_0": 1,
            "NORMAL": 2
          },
          "mode": 4,
          "material": 5,
          "indices": 8
        },
        {
          "attributes": {
            "POSITION": 0,
            "TEXCOORD_0": 1,
            "NORMAL": 2
          },
          "mode": 4,
          "material": 6,
          "indices": 9
        }
      ]
    }
  ],
  "nodes": [
    {
      "name": "Object_2_13"
    },
    {
      "name": "Object_2_27"
    },
    {
      "name": "Object_2_41"
    },
    {
      "name": "Object_2_55"
    },
    {
      "name": "Object_2_69"
    },
    {
      "name": "Object_2_83"
    },
    {
      "name": "Object_2_97"
    },
    {
      "name": "Object_2_111"
    },
    {
      "name": "Object_2_125"
    },
    {
      "name": "Object_2_139"
    },
    {
      "name": "Object_2_153"
    },
    {
      "name": "Object_2_167"
    },
    {
      "name": "Object_2_181"
    },
    {
      "name": "Object_2_195"
    },
    {
      "name": "Object_2_209"
    },
    {
      "name": "Object_2_223"
    },
    {
      "name": "Object_2_237"
    },
    {
      "name": "Object_2_251"
    },
    {
      "name": "Object_2_265"
    },
    {
      "name": "Object_2_279"
    },
    {
      "name": "Object_2_293"
    },
    {
      "name": "Object_2_307"
    },
    {
      "name": "Object_2_321"
    },
    {
      "name": "Object_2_335"
    },
    {
      "name": "Object_2_346"
    },
    {
      "name": "Object_2_367"
    },
    {
      "name": "Object_2_386"
    },
    {
      "name": "Object_2_405"
    },
    {
      "name": "Object_2_424"
    },
    {
      "name": "Object_2_443"
    },
    {
      "name": "Object_2_462"
    },
    {
      "name": "Object_2_481"
    },
    {
      "name": "Object_1_484"
    },
    {
      "name": "Object_2_485",
      "children": [
        34
      ]
    },
    {
      "name": "Bip01",
      "mesh": 0
    },
    {
      "name": "Object_1_538"
    }
  ],
  "scenes": [
    {
      "name": "empty_1",
      "nodes": [
        0,
        1,
        2,
        3,
        4,
        5,
        6,
        7,
        8,
        9,
        10,
        11,
        12,
        13,
        14,
        15,
        16,
        17,
        18,
        19,
        20,
        21,
        22,
        23,
        24,
        25,
        26,
        27,
        28,
        29,
        30,
        31,
        32,
        33,
        35
      ]
    }
  ],
  "scene": 0
}